<svg width="44" height="52" viewBox="0 0 44 52" fill="none" xmlns="http://www.w3.org/2000/svg">
<path fill-rule="evenodd" clip-rule="evenodd" d="M27.1384 10.7191L16.3893 21.5401L3.80468 13.7944C2.15566 12.7792 2.4899 10.2748 4.34759 9.7356L34.0595 1.09002C35.7492 0.601036 37.3114 2.18513 36.8054 3.88264L27.9897 33.5639C27.4376 35.4213 24.9613 35.743 23.9604 34.0845L16.3893 21.5401" fill="url(#paint0_linear_2_252)"/>
<g opacity="0.5" filter="url(#filter0_f_2_252)">
<path fill-rule="evenodd" clip-rule="evenodd" d="M25.5975 13.154L19.1872 19.6071L11.6821 14.9879C10.6987 14.3825 10.898 12.8889 12.0059 12.5674L29.725 7.41149C30.7327 7.11988 31.6643 8.06457 31.3626 9.0769L26.1052 26.7777C25.7759 27.8854 24.2992 28.0773 23.7023 27.0882L19.1872 19.6071" fill="#9327F0"/>
</g>
<g filter="url(#filter1_b_2_252)">
<mask id="path-3-outside-1_2_252" maskUnits="userSpaceOnUse" x="0.25" y="7.88814" width="44" height="44" fill="black">
<rect fill="white" x="0.25" y="7.88814" width="44" height="44"/>
<path fill-rule="evenodd" clip-rule="evenodd" d="M31.3258 20.8692L18.0751 34.2084L2.56165 24.6601C0.528856 23.4087 0.940878 20.3214 3.2309 19.6567L39.8576 8.99911C41.9405 8.39632 43.8663 10.3491 43.2426 12.4416L32.3752 49.0306C31.6946 51.3202 28.642 51.7168 27.4082 49.6723L18.0751 34.2084"/>
</mask>
<path fill-rule="evenodd" clip-rule="evenodd" d="M31.3258 20.8692L18.0751 34.2084L2.56165 24.6601C0.528856 23.4087 0.940878 20.3214 3.2309 19.6567L39.8576 8.99911C41.9405 8.39632 43.8663 10.3491 43.2426 12.4416L32.3752 49.0306C31.6946 51.3202 28.642 51.7168 27.4082 49.6723L18.0751 34.2084" fill="#A448F4" fill-opacity="0.2"/>
<path d="M31.6805 21.2216C31.8751 21.0257 31.8741 20.7091 31.6782 20.5145C31.4823 20.3199 31.1657 20.3209 30.9711 20.5168L31.6805 21.2216ZM18.0751 34.2084L17.813 34.6342C18.0107 34.7559 18.2662 34.7255 18.4298 34.5608L18.0751 34.2084ZM2.56165 24.6601L2.29953 25.0859L2.29957 25.0859L2.56165 24.6601ZM3.2309 19.6567L3.37027 20.1369L3.3706 20.1368L3.2309 19.6567ZM39.8576 8.99911L39.7186 8.51882L39.7179 8.51902L39.8576 8.99911ZM43.2426 12.4416L42.7634 12.2988L42.7632 12.2993L43.2426 12.4416ZM32.3752 49.0306L32.8545 49.173L32.8545 49.1729L32.3752 49.0306ZM27.4082 49.6723L27.8363 49.414L27.8362 49.414L27.4082 49.6723ZM18.5031 33.9501C18.3605 33.7137 18.0531 33.6377 17.8167 33.7804C17.5803 33.923 17.5043 34.2304 17.647 34.4668L18.5031 33.9501ZM30.9711 20.5168L17.7203 33.8561L18.4298 34.5608L31.6805 21.2216L30.9711 20.5168ZM18.3372 33.7826L2.82373 24.2343L2.29957 25.0859L17.813 34.6342L18.3372 33.7826ZM2.82377 24.2343C1.15781 23.2087 1.49967 20.6799 3.37027 20.1369L3.09153 19.1766C0.382082 19.963 -0.100101 23.6087 2.29953 25.0859L2.82377 24.2343ZM3.3706 20.1368L39.9973 9.4792L39.7179 8.51902L3.0912 19.1767L3.3706 20.1368ZM39.9966 9.4794C41.6943 8.9881 43.2757 10.5802 42.7634 12.2988L43.7217 12.5845C44.4569 10.118 42.1867 7.80455 39.7186 8.51882L39.9966 9.4794ZM42.7632 12.2993L31.8959 48.8882L32.8545 49.1729L43.7219 12.584L42.7632 12.2993ZM31.8959 48.8881C31.3382 50.7642 28.8442 51.0841 27.8363 49.414L26.9801 49.9307C28.4398 52.3494 32.0509 51.8763 32.8545 49.173L31.8959 48.8881ZM27.8362 49.414L18.5031 33.9501L17.647 34.4668L26.9801 49.9307L27.8362 49.414Z" fill="url(#paint1_linear_2_252)" style="mix-blend-mode:overlay" mask="url(#path-3-outside-1_2_252)"/>
</g>
<g filter="url(#filter2_bd_2_252)">
<rect x="20.5668" y="29.9469" width="14.4099" height="2.48447" rx="1.24224" transform="rotate(-45 20.5668 29.9469)" fill="url(#paint2_linear_2_252)"/>
<rect x="20.7074" y="29.9469" width="14.2112" height="2.28571" rx="1.14286" transform="rotate(-45 20.7074 29.9469)" stroke="url(#paint3_linear_2_252)" stroke-width="0.198758"/>
</g>
<defs>
<filter id="filter0_f_2_252" x="4.09107" y="0.401282" width="34.2857" height="34.2857" filterUnits="userSpaceOnUse" color-interpolation-filters="sRGB">
<feFlood flood-opacity="0" result="BackgroundImageFix"/>
<feBlend mode="normal" in="SourceGraphic" in2="BackgroundImageFix" result="shape"/>
<feGaussianBlur stdDeviation="3.47826" result="effect1_foregroundBlur_2_252"/>
</filter>
<filter id="filter1_b_2_252" x="-9.25002" y="-1.61272" width="63.1123" height="63.1129" filterUnits="userSpaceOnUse" color-interpolation-filters="sRGB">
<feFlood flood-opacity="0" result="BackgroundImageFix"/>
<feGaussianBlur in="BackgroundImage" stdDeviation="5"/>
<feComposite in2="SourceAlpha" operator="in" result="effect1_backgroundBlur_2_252"/>
<feBlend mode="normal" in="SourceGraphic" in2="effect1_backgroundBlur_2_252" result="shape"/>
</filter>
<filter id="filter2_bd_2_252" x="13.628" y="12.8187" width="25.8239" height="25.8239" filterUnits="userSpaceOnUse" color-interpolation-filters="sRGB">
<feFlood flood-opacity="0" result="BackgroundImageFix"/>
<feGaussianBlur in="BackgroundImage" stdDeviation="3.72671"/>
<feComposite in2="SourceAlpha" operator="in" result="effect1_backgroundBlur_2_252"/>
<feColorMatrix in="SourceAlpha" type="matrix" values="0 0 0 0 0 0 0 0 0 0 0 0 0 0 0 0 0 0 127 0" result="hardAlpha"/>
<feOffset dx="2.48447" dy="2.48447"/>
<feGaussianBlur stdDeviation="2.48447"/>
<feColorMatrix type="matrix" values="0 0 0 0 0.460387 0 0 0 0 0.063993 0 0 0 0 0.808333 0 0 0 1 0"/>
<feBlend mode="normal" in2="effect1_backgroundBlur_2_252" result="effect2_dropShadow_2_252"/>
<feBlend mode="normal" in="SourceGraphic" in2="effect2_dropShadow_2_252" result="shape"/>
</filter>
<linearGradient id="paint0_linear_2_252" x1="19.8214" y1="1" x2="19.8214" y2="35.1615" gradientUnits="userSpaceOnUse">
<stop stop-color="#BE79F9"/>
<stop offset="1" stop-color="#9327F0"/>
</linearGradient>
<linearGradient id="paint1_linear_2_252" x1="7.95351" y1="13.7942" x2="34.8164" y2="47.0645" gradientUnits="userSpaceOnUse">
<stop stop-color="white" stop-opacity="0.25"/>
<stop offset="1" stop-color="white" stop-opacity="0"/>
</linearGradient>
<linearGradient id="paint2_linear_2_252" x1="33.9551" y1="30.3955" x2="18.4415" y2="33.3293" gradientUnits="userSpaceOnUse">
<stop stop-color="white"/>
<stop offset="1" stop-color="white" stop-opacity="0.2"/>
</linearGradient>
<linearGradient id="paint3_linear_2_252" x1="22.8606" y1="30.2363" x2="23.3034" y2="33.4172" gradientUnits="userSpaceOnUse">
<stop stop-color="white" stop-opacity="0.25"/>
<stop offset="1" stop-color="white" stop-opacity="0"/>
</linearGradient>
</defs>
</svg>
