<svg width="44" height="52" viewBox="0 0 44 52" fill="none" xmlns="http://www.w3.org/2000/svg">
<path fill-rule="evenodd" clip-rule="evenodd" d="M26.8884 10.7191L16.1393 21.5401L3.55468 13.7944C1.90566 12.7792 2.2399 10.2748 4.09759 9.7356L33.8095 1.09002C35.4992 0.601036 37.0614 2.18513 36.5554 3.88264L27.7397 33.5639C27.1876 35.4213 24.7113 35.743 23.7104 34.0845L16.1393 21.5401" fill="url(#paint0_linear_144_261)"/>
<g opacity="0.5" filter="url(#filter0_f_144_261)">
<path fill-rule="evenodd" clip-rule="evenodd" d="M25.3475 13.154L18.9372 19.6072L11.4321 14.9879C10.4487 14.3825 10.648 12.889 11.7559 12.5674L29.475 7.41149C30.4827 7.11988 31.4143 8.06457 31.1126 9.07691L25.8552 26.7777C25.5259 27.8854 24.0492 28.0773 23.4523 27.0882L18.9372 19.6072" fill="#61DE70"/>
</g>
<g filter="url(#filter1_b_144_261)">
<mask id="path-3-outside-1_144_261" maskUnits="userSpaceOnUse" x="0" y="7.88814" width="44" height="44" fill="black">
<rect fill="white" y="7.88814" width="44" height="44"/>
<path fill-rule="evenodd" clip-rule="evenodd" d="M31.0758 20.8692L17.8251 34.2084L2.31165 24.6601C0.278856 23.4087 0.690878 20.3214 2.9809 19.6568L39.6076 8.99911C41.6905 8.39633 43.6163 10.3491 42.9926 12.4416L32.1252 49.0306C31.4446 51.3202 28.392 51.7168 27.1582 49.6723L17.8251 34.2084"/>
</mask>
<path fill-rule="evenodd" clip-rule="evenodd" d="M31.0758 20.8692L17.8251 34.2084L2.31165 24.6601C0.278856 23.4087 0.690878 20.3214 2.9809 19.6568L39.6076 8.99911C41.6905 8.39633 43.6163 10.3491 42.9926 12.4416L32.1252 49.0306C31.4446 51.3202 28.392 51.7168 27.1582 49.6723L17.8251 34.2084" fill="#61DE70" fill-opacity="0.2"/>
<path d="M31.4305 21.2216C31.6251 21.0257 31.6241 20.7091 31.4282 20.5145C31.2323 20.3199 30.9157 20.3209 30.7211 20.5168L31.4305 21.2216ZM2.31165 24.6601L2.04953 25.0859L2.04957 25.0859L2.31165 24.6601ZM2.9809 19.6568L3.12027 20.1369L3.1206 20.1368L2.9809 19.6568ZM39.6076 8.99911L39.4686 8.51882L39.4679 8.51903L39.6076 8.99911ZM42.9926 12.4416L42.5134 12.2988L42.5132 12.2993L42.9926 12.4416ZM32.1252 49.0306L32.6045 49.173L32.6045 49.1729L32.1252 49.0306ZM27.1582 49.6723L27.5862 49.414L27.5862 49.414L27.1582 49.6723ZM30.7211 20.5168L17.4703 33.8561L18.1798 34.5608L31.4305 21.2216L30.7211 20.5168ZM18.0872 33.7826L2.57373 24.2343L2.04957 25.0859L17.563 34.6342L18.0872 33.7826ZM2.57377 24.2343C0.907813 23.2087 1.24967 20.6799 3.12027 20.1369L2.84153 19.1766C0.132082 19.963 -0.350101 23.6087 2.04953 25.0859L2.57377 24.2343ZM3.1206 20.1368L39.7473 9.4792L39.4679 8.51903L2.8412 19.1767L3.1206 20.1368ZM39.7466 9.47941C41.4443 8.9881 43.0257 10.5802 42.5134 12.2988L43.4717 12.5845C44.2069 10.118 41.9367 7.80455 39.4686 8.51882L39.7466 9.47941ZM42.5132 12.2993L31.6459 48.8882L32.6045 49.1729L43.4719 12.584L42.5132 12.2993ZM31.6459 48.8881C31.0882 50.7642 28.5942 51.0841 27.5862 49.414L26.7301 49.9307C28.1898 52.3494 31.8009 51.8763 32.6045 49.173L31.6459 48.8881ZM27.5862 49.414L18.2531 33.9501L17.397 34.4668L26.7301 49.9307L27.5862 49.414Z" fill="url(#paint1_linear_144_261)" style="mix-blend-mode:overlay" mask="url(#path-3-outside-1_144_261)"/>
</g>
<g filter="url(#filter2_bd_144_261)">
<rect x="20.3168" y="29.9469" width="14.4099" height="2.48447" rx="1.24224" transform="rotate(-45 20.3168 29.9469)" fill="url(#paint2_linear_144_261)"/>
<rect x="20.4574" y="29.9469" width="14.2112" height="2.28571" rx="1.14286" transform="rotate(-45 20.4574 29.9469)" stroke="url(#paint3_linear_144_261)" stroke-width="0.198758"/>
</g>
<defs>
<filter id="filter0_f_144_261" x="3.84107" y="0.401286" width="34.2857" height="34.2857" filterUnits="userSpaceOnUse" color-interpolation-filters="sRGB">
<feFlood flood-opacity="0" result="BackgroundImageFix"/>
<feBlend mode="normal" in="SourceGraphic" in2="BackgroundImageFix" result="shape"/>
<feGaussianBlur stdDeviation="3.47826" result="effect1_foregroundBlur_144_261"/>
</filter>
<filter id="filter1_b_144_261" x="-9.50002" y="-1.61272" width="63.1123" height="63.1129" filterUnits="userSpaceOnUse" color-interpolation-filters="sRGB">
<feFlood flood-opacity="0" result="BackgroundImageFix"/>
<feGaussianBlur in="BackgroundImage" stdDeviation="5"/>
<feComposite in2="SourceAlpha" operator="in" result="effect1_backgroundBlur_144_261"/>
<feBlend mode="normal" in="SourceGraphic" in2="effect1_backgroundBlur_144_261" result="shape"/>
</filter>
<filter id="filter2_bd_144_261" x="13.3779" y="12.8187" width="25.8239" height="25.8239" filterUnits="userSpaceOnUse" color-interpolation-filters="sRGB">
<feFlood flood-opacity="0" result="BackgroundImageFix"/>
<feGaussianBlur in="BackgroundImage" stdDeviation="3.72671"/>
<feComposite in2="SourceAlpha" operator="in" result="effect1_backgroundBlur_144_261"/>
<feColorMatrix in="SourceAlpha" type="matrix" values="0 0 0 0 0 0 0 0 0 0 0 0 0 0 0 0 0 0 127 0" result="hardAlpha"/>
<feOffset dx="2.48447" dy="2.48447"/>
<feGaussianBlur stdDeviation="2.48447"/>
<feColorMatrix type="matrix" values="0 0 0 0 0.380392 0 0 0 0 0.870588 0 0 0 0 0.439216 0 0 0 1 0"/>
<feBlend mode="normal" in2="effect1_backgroundBlur_144_261" result="effect2_dropShadow_144_261"/>
<feBlend mode="normal" in="SourceGraphic" in2="effect2_dropShadow_144_261" result="shape"/>
</filter>
<linearGradient id="paint0_linear_144_261" x1="19.5714" y1="1" x2="19.5714" y2="35.1615" gradientUnits="userSpaceOnUse">
<stop stop-color="#61DE70"/>
<stop offset="1" stop-color="#A8FFB2"/>
</linearGradient>
<linearGradient id="paint1_linear_144_261" x1="7.70351" y1="13.7942" x2="34.5664" y2="47.0645" gradientUnits="userSpaceOnUse">
<stop stop-color="white" stop-opacity="0.25"/>
<stop offset="1" stop-color="white" stop-opacity="0"/>
</linearGradient>
<linearGradient id="paint2_linear_144_261" x1="33.7051" y1="30.3955" x2="18.1915" y2="33.3293" gradientUnits="userSpaceOnUse">
<stop stop-color="white"/>
<stop offset="1" stop-color="white" stop-opacity="0.2"/>
</linearGradient>
<linearGradient id="paint3_linear_144_261" x1="22.6106" y1="30.2363" x2="23.0534" y2="33.4172" gradientUnits="userSpaceOnUse">
<stop stop-color="white" stop-opacity="0.25"/>
<stop offset="1" stop-color="white" stop-opacity="0"/>
</linearGradient>
</defs>
</svg>
