<svg width="49" height="46" viewBox="0 0 49 46" fill="none" xmlns="http://www.w3.org/2000/svg">
<g filter="url(#filter0_b_2_278)">
<path d="M25.1399 2.41976L9.29539 6.66528C3.52142 8.21242 1.12649 12.3601 2.67348 18.1335L6.91457 33.9615C8.46155 39.7349 12.6095 42.1295 18.3834 40.5823L34.228 36.3368C40.0019 34.7897 42.3818 30.646 40.8348 24.8726L36.5937 9.04464C35.0467 3.2712 30.9139 0.872625 25.1399 2.41976Z" fill="url(#paint0_linear_2_278)"/>
</g>
<g opacity="0.5" filter="url(#filter1_f_2_278)">
<path d="M32.9471 23.1624L30.0698 12.2632C29.0262 8.3098 26.4141 6.53714 22.9795 7.44384L11.347 10.5147C7.85613 11.4363 6.5044 14.2554 7.54807 18.2088L10.4254 29.108C11.4859 33.1251 14.0358 34.8447 17.5266 33.9231L29.1591 30.8522C32.5937 29.9455 34.0076 27.1796 32.9471 23.1624Z" fill="#0DA6C2"/>
</g>
<g filter="url(#filter2_b_2_278)">
<mask id="path-3-outside-1_2_278" maskUnits="userSpaceOnUse" x="12.149" y="8.8866" width="37" height="37" fill="black">
<rect fill="white" x="12.149" y="8.8866" width="37" height="37"/>
<path d="M38.9146 9.8866H22.5126C16.5356 9.8866 13.149 13.2731 13.149 19.2502V35.6365C13.149 41.6136 16.5356 45.0001 22.5126 45.0001H38.9146C44.8917 45.0001 48.2626 41.6136 48.2626 35.6365V19.2502C48.2626 13.2731 44.8917 9.8866 38.9146 9.8866Z"/>
</mask>
<path d="M38.9146 9.8866H22.5126C16.5356 9.8866 13.149 13.2731 13.149 19.2502V35.6365C13.149 41.6136 16.5356 45.0001 22.5126 45.0001H38.9146C44.8917 45.0001 48.2626 41.6136 48.2626 35.6365V19.2502C48.2626 13.2731 44.8917 9.8866 38.9146 9.8866Z" fill="#0DA6C2" fill-opacity="0.2"/>
<path d="M38.9146 10.3272C39.1579 10.3272 39.3552 10.1299 39.3552 9.8866C39.3552 9.64325 39.1579 9.44597 38.9146 9.44597V10.3272ZM38.9146 9.44597C38.6712 9.44597 38.4739 9.64325 38.4739 9.8866C38.4739 10.1299 38.6712 10.3272 38.9146 10.3272V9.44597ZM38.9146 9.44597H22.5126V10.3272H38.9146V9.44597ZM22.5126 9.44597C19.4422 9.44597 16.9761 10.3172 15.2779 12.0154C13.5797 13.7136 12.7084 16.1797 12.7084 19.2502H13.5897C13.5897 16.3436 14.4117 14.1279 15.901 12.6386C17.3903 11.1492 19.606 10.3272 22.5126 10.3272V9.44597ZM12.7084 19.2502V35.6365H13.5897V19.2502H12.7084ZM12.7084 35.6365C12.7084 38.707 13.5797 41.1731 15.2779 42.8713C16.9761 44.5695 19.4422 45.4407 22.5126 45.4407V44.5595C19.606 44.5595 17.3903 43.7375 15.901 42.2481C14.4117 40.7588 13.5897 38.5431 13.5897 35.6365H12.7084ZM22.5126 45.4407H38.9146V44.5595H22.5126V45.4407ZM38.9146 45.4407C41.9851 45.4407 44.4475 44.5695 46.1419 42.8709C47.8361 41.1725 48.7032 38.7064 48.7032 35.6365H47.8219C47.8219 38.5437 47.0035 40.7594 45.518 42.2485C44.0327 43.7375 41.8212 44.5595 38.9146 44.5595V45.4407ZM48.7032 35.6365V19.2502H47.8219V35.6365H48.7032ZM48.7032 19.2502C48.7032 16.1803 47.8361 13.7142 46.1419 12.0158C44.4475 10.3172 41.9851 9.44597 38.9146 9.44597V10.3272C41.8212 10.3272 44.0327 11.1492 45.518 12.6382C47.0035 14.1273 47.8219 16.343 47.8219 19.2502H48.7032Z" fill="url(#paint1_linear_2_278)" mask="url(#path-3-outside-1_2_278)"/>
</g>
<g filter="url(#filter3_bd_2_278)">
<mask id="path-5-inside-2_2_278" fill="white">
<path fill-rule="evenodd" clip-rule="evenodd" d="M30.7679 17.0654C29.972 17.0654 29.3165 17.7208 29.3165 18.5323V36.3544C29.3165 37.1503 29.972 37.8058 30.7679 37.8058C31.5794 37.8058 32.2349 37.1503 32.2349 36.3544V18.5323C32.2349 17.7208 31.5794 17.0654 30.7679 17.0654ZM22.5747 22.8244C21.7788 22.8244 21.1234 23.4799 21.1234 24.2914V36.3548C21.1234 37.1507 21.7788 37.8062 22.5747 37.8062C23.3862 37.8062 24.0417 37.1507 24.0417 36.3548V24.2914C24.0417 23.4799 23.3862 22.8244 22.5747 22.8244ZM37.385 30.6586C37.385 29.8471 38.0405 29.1917 38.852 29.1917C39.6479 29.1917 40.3033 29.8471 40.3033 30.6586V36.3548C40.3033 37.1507 39.6479 37.8062 38.8364 37.8062C38.0405 37.8062 37.385 37.1507 37.385 36.3548V30.6586Z"/>
</mask>
<path fill-rule="evenodd" clip-rule="evenodd" d="M30.7679 17.0654C29.972 17.0654 29.3165 17.7208 29.3165 18.5323V36.3544C29.3165 37.1503 29.972 37.8058 30.7679 37.8058C31.5794 37.8058 32.2349 37.1503 32.2349 36.3544V18.5323C32.2349 17.7208 31.5794 17.0654 30.7679 17.0654ZM22.5747 22.8244C21.7788 22.8244 21.1234 23.4799 21.1234 24.2914V36.3548C21.1234 37.1507 21.7788 37.8062 22.5747 37.8062C23.3862 37.8062 24.0417 37.1507 24.0417 36.3548V24.2914C24.0417 23.4799 23.3862 22.8244 22.5747 22.8244ZM37.385 30.6586C37.385 29.8471 38.0405 29.1917 38.852 29.1917C39.6479 29.1917 40.3033 29.8471 40.3033 30.6586V36.3548C40.3033 37.1507 39.6479 37.8062 38.8364 37.8062C38.0405 37.8062 37.385 37.1507 37.385 36.3548V30.6586Z" fill="url(#paint2_linear_2_278)"/>
<path d="M29.4928 18.5323C29.4928 17.8169 30.0705 17.2416 30.7679 17.2416V16.8891C29.8734 16.8891 29.1403 17.6247 29.1403 18.5323H29.4928ZM29.4928 36.3544V18.5323H29.1403V36.3544H29.4928ZM30.7679 37.6295C30.0693 37.6295 29.4928 37.053 29.4928 36.3544H29.1403C29.1403 37.2476 29.8746 37.982 30.7679 37.982V37.6295ZM32.0586 36.3544C32.0586 37.0517 31.4833 37.6295 30.7679 37.6295V37.982C31.6755 37.982 32.4111 37.2489 32.4111 36.3544H32.0586ZM32.0586 18.5323V36.3544H32.4111V18.5323H32.0586ZM30.7679 17.2416C31.4821 17.2416 32.0586 17.8182 32.0586 18.5323H32.4111C32.4111 17.6235 31.6767 16.8891 30.7679 16.8891V17.2416ZM21.2996 24.2914C21.2996 23.576 21.8774 23.0007 22.5747 23.0007V22.6482C21.6803 22.6482 20.9471 23.3838 20.9471 24.2914H21.2996ZM21.2996 36.3548V24.2914H20.9471V36.3548H21.2996ZM22.5747 37.6299C21.8762 37.6299 21.2996 37.0534 21.2996 36.3548H20.9471C20.9471 37.2481 21.6815 37.9824 22.5747 37.9824V37.6299ZM23.8654 36.3548C23.8654 37.0522 23.2901 37.6299 22.5747 37.6299V37.9824C23.4823 37.9824 24.2179 37.2493 24.2179 36.3548H23.8654ZM23.8654 24.2914V36.3548H24.2179V24.2914H23.8654ZM22.5747 23.0007C23.2889 23.0007 23.8654 23.5772 23.8654 24.2914H24.2179C24.2179 23.3825 23.4836 22.6482 22.5747 22.6482V23.0007ZM38.852 29.0154C37.9431 29.0154 37.2088 29.7498 37.2088 30.6586H37.5613C37.5613 29.9444 38.1378 29.3679 38.852 29.3679V29.0154ZM40.4796 30.6586C40.4796 29.751 39.7464 29.0154 38.852 29.0154V29.3679C39.5493 29.3679 40.1271 29.9432 40.1271 30.6586H40.4796ZM40.4796 36.3548V30.6586H40.1271V36.3548H40.4796ZM38.8364 37.9824C39.744 37.9824 40.4796 37.2493 40.4796 36.3548H40.1271C40.1271 37.0521 39.5518 37.6299 38.8364 37.6299V37.9824ZM37.2088 36.3548C37.2088 37.2481 37.9431 37.9824 38.8364 37.9824V37.6299C38.1378 37.6299 37.5613 37.0534 37.5613 36.3548H37.2088ZM37.2088 30.6586V36.3548H37.5613V30.6586H37.2088Z" fill="url(#paint3_linear_2_278)" mask="url(#path-5-inside-2_2_278)"/>
</g>
<defs>
<filter id="filter0_b_2_278" x="-3.5143" y="-3.76773" width="50.5384" height="50.5379" filterUnits="userSpaceOnUse" color-interpolation-filters="sRGB">
<feFlood flood-opacity="0" result="BackgroundImageFix"/>
<feGaussianBlur in="BackgroundImage" stdDeviation="2.86405"/>
<feComposite in2="SourceAlpha" operator="in" result="effect1_backgroundBlur_2_278"/>
<feBlend mode="normal" in="SourceGraphic" in2="effect1_backgroundBlur_2_278" result="shape"/>
</filter>
<filter id="filter1_f_2_278" x="1.47622" y="1.48314" width="37.5445" height="38.4111" filterUnits="userSpaceOnUse" color-interpolation-filters="sRGB">
<feFlood flood-opacity="0" result="BackgroundImageFix"/>
<feBlend mode="normal" in="SourceGraphic" in2="BackgroundImageFix" result="shape"/>
<feGaussianBlur stdDeviation="2.86405" result="effect1_foregroundBlur_2_278"/>
</filter>
<filter id="filter2_b_2_278" x="6.09907" y="2.83662" width="49.2135" height="49.2135" filterUnits="userSpaceOnUse" color-interpolation-filters="sRGB">
<feFlood flood-opacity="0" result="BackgroundImageFix"/>
<feGaussianBlur in="BackgroundImage" stdDeviation="3.30468"/>
<feComposite in2="SourceAlpha" operator="in" result="effect1_backgroundBlur_2_278"/>
<feBlend mode="normal" in="SourceGraphic" in2="effect1_backgroundBlur_2_278" result="shape"/>
</filter>
<filter id="filter3_bd_2_278" x="14.514" y="10.456" width="32.3987" height="33.9595" filterUnits="userSpaceOnUse" color-interpolation-filters="sRGB">
<feFlood flood-opacity="0" result="BackgroundImageFix"/>
<feGaussianBlur in="BackgroundImage" stdDeviation="3.30468"/>
<feComposite in2="SourceAlpha" operator="in" result="effect1_backgroundBlur_2_278"/>
<feColorMatrix in="SourceAlpha" type="matrix" values="0 0 0 0 0 0 0 0 0 0 0 0 0 0 0 0 0 0 127 0" result="hardAlpha"/>
<feOffset dx="2.20312" dy="2.20312"/>
<feGaussianBlur stdDeviation="2.20312"/>
<feColorMatrix type="matrix" values="0 0 0 0 0.0509804 0 0 0 0 0.65098 0 0 0 0 0.760784 0 0 0 0.5 0"/>
<feBlend mode="normal" in2="effect1_backgroundBlur_2_278" result="effect2_dropShadow_2_278"/>
<feBlend mode="normal" in="SourceGraphic" in2="effect2_dropShadow_2_278" result="shape"/>
</filter>
<linearGradient id="paint0_linear_2_278" x1="24.8599" y1="23.1052" x2="-1.06103" y2="45.5841" gradientUnits="userSpaceOnUse">
<stop stop-color="#56E5FF"/>
<stop offset="1" stop-color="#0DA6C2"/>
</linearGradient>
<linearGradient id="paint1_linear_2_278" x1="18.7385" y1="13.9774" x2="41.1372" y2="41.7187" gradientUnits="userSpaceOnUse">
<stop stop-color="white" stop-opacity="0.25"/>
<stop offset="1" stop-color="white" stop-opacity="0"/>
</linearGradient>
<linearGradient id="paint2_linear_2_278" x1="16.1586" y1="32.4597" x2="25.1434" y2="50.9175" gradientUnits="userSpaceOnUse">
<stop stop-color="white"/>
<stop offset="1" stop-color="white" stop-opacity="0.2"/>
</linearGradient>
<linearGradient id="paint3_linear_2_278" x1="24.1765" y1="19.4817" x2="37.5872" y2="34.8413" gradientUnits="userSpaceOnUse">
<stop stop-color="white" stop-opacity="0.25"/>
<stop offset="1" stop-color="white" stop-opacity="0"/>
</linearGradient>
</defs>
</svg>
